<svg width="0" height="0" class="hidden">
  <symbol xmlns="http://www.w3.org/2000/svg" viewBox="0 0 177 27" id="resources-arzamas">
    <path fill-rule="evenodd" clip-rule="evenodd" d="M18.8648 22.2559L10.6992 0.461426H6.02411L4.51919 4.49449L11.0571 22.2554C11.4536 23.3655 11.3336 24.438 8.79886 24.438V25.9186H21.5567V24.438C20.487 24.438 19.455 23.884 18.8648 22.2554V22.2559ZM35.2707 24.369H36.1197V25.9186H23.222V24.5839C23.6622 24.5742 24.0956 24.4763 24.494 24.2963C24.8007 24.121 25.0478 23.8643 25.2056 23.5571C25.3633 23.2498 25.4249 22.9054 25.3828 22.5653V11.676C25.3828 10.4491 25.1898 10.0893 23.5671 10.1265C23.2708 10.1223 22.9745 10.1335 22.6794 10.1599V8.89902C24.4559 8.28663 27.9336 7.34895 30.1708 7.34895C32.2559 7.34895 32.7575 7.99689 32.7575 9.65522V10.6295C34.5335 8.46653 36.4261 7.34895 38.5499 7.34895C40.5199 7.34895 42.063 8.50208 42.063 10.5223C42.0911 10.9393 42.0285 11.3574 41.8793 11.7499C41.73 12.1425 41.4974 12.5009 41.196 12.8026C40.8947 13.1043 40.5313 13.3426 40.1289 13.5024C39.7265 13.6622 39.2939 13.7399 38.8585 13.7307C36.3874 13.7307 36.6191 11.2074 34.4173 11.2074C33.8332 11.2344 33.2643 11.395 32.7581 11.676V22.5653C32.7603 23.6123 33.6098 24.3695 35.2707 24.3695V24.369ZM44.8771 7.89076H61.3648L62.0218 8.89902L51.905 23.9349H55.1078C56.381 23.9102 57.6122 23.4941 58.6204 22.7477C59.6286 22.0014 60.3604 20.9642 60.7083 19.7888L62.0218 19.9337L61.1723 25.9186H43.7184L43.1393 24.9814L53.2572 9.8728H50.3979C47.195 9.8728 45.8416 11.7832 45.033 13.7684L43.6055 13.5875L44.8771 7.89076ZM84.5701 24.2608C84.8002 24.2792 85.0314 24.2792 85.2615 24.2608L85.3002 25.0907C83.5654 25.9798 81.6311 26.4501 79.6643 26.4609C76.0749 26.4609 75.3006 24.9819 75.3006 22.8911V22.4942C74.0285 24.5139 72.0585 26.4248 68.969 26.4248C66.0333 26.4248 64.3342 24.6938 64.3342 22.1333C64.3342 18.7073 67.3468 17.5547 71.2858 16.7975L75.3006 16.0407V15.3907C75.3006 13.2632 74.4522 11.8575 71.5546 11.8575C69.3656 11.9403 67.1916 12.2427 65.0681 12.7596V10.1997C68.3512 8.54135 72.0585 7.3516 75.1844 7.3516C80.6654 7.3516 82.6786 10.1641 82.6786 14.9608V22.0261C82.6786 23.7916 83.0989 24.2602 84.5701 24.2602V24.2608ZM75.3006 21.6287V17.482L73.294 17.9517C71.9429 18.2764 70.9374 18.8161 70.9374 20.1147C70.9374 21.5209 72.1348 21.9895 73.294 21.9895C73.9789 21.9741 74.6566 21.852 75.3006 21.6281V21.6287ZM97.3683 24.2608C97.7516 24.4544 98.1745 24.5651 98.6072 24.585V25.9196H86.9041V24.585C87.3462 24.5757 87.7814 24.4778 88.1817 24.2974C88.4879 24.1219 88.7344 23.8649 88.8915 23.5577C89.0486 23.2504 89.1094 22.9061 89.0666 22.5663V11.6771C89.0666 10.4862 88.873 10.1275 87.4461 10.1275C87.1364 10.1275 86.7879 10.1275 86.3676 10.1609V8.89902C88.143 8.28663 91.6163 7.34895 93.8562 7.34895C95.9413 7.34895 96.4446 7.99689 96.4446 9.65522V10.9904C98.491 8.89902 101.041 7.34895 103.972 7.34895C107.257 7.34895 108.994 8.61034 109.608 11.1697C111.732 9.00569 114.287 7.34895 117.334 7.34895C121.621 7.34895 123.28 9.47639 123.28 13.9467V22.5653C123.249 22.9028 123.32 23.2417 123.484 23.542C123.647 23.8422 123.897 24.0912 124.203 24.2597C124.587 24.4527 125.01 24.5633 125.442 24.5839V25.9186H113.739V24.5839C114.181 24.5747 114.617 24.4767 115.017 24.2963C115.323 24.1208 115.57 23.8639 115.727 23.5566C115.884 23.2494 115.945 22.905 115.902 22.5653V15.9319C115.902 13.1566 115.443 11.2456 112.467 11.2456C111.524 11.2256 110.588 11.4103 109.73 11.7858C109.855 12.5006 109.92 13.224 109.923 13.9488V22.5674C109.891 22.9051 109.961 23.2444 110.125 23.5449C110.289 23.8453 110.54 24.0942 110.847 24.2618C111.228 24.4555 111.649 24.5662 112.08 24.5861V25.9207H100.383V24.5861C100.823 24.5768 101.256 24.4788 101.655 24.2984C101.962 24.1234 102.209 23.8667 102.367 23.5595C102.525 23.2523 102.587 22.9076 102.545 22.5674V15.9341C102.545 13.1587 102.08 11.2478 99.1049 11.2478C98.191 11.233 97.2842 11.4047 96.4446 11.7514V22.5695C96.4148 22.9065 96.4859 23.2446 96.6495 23.5441C96.8132 23.8436 97.0625 24.0921 97.3683 24.2602V24.2608ZM147.621 24.2608C147.851 24.2792 148.082 24.2792 148.312 24.2608L148.351 25.0907C146.616 25.9798 144.682 26.4501 142.715 26.4609C139.125 26.4609 138.351 24.9819 138.351 22.8911V22.4942C137.079 24.5139 135.105 26.4248 132.018 26.4248C129.087 26.4248 127.384 24.6938 127.384 22.1333C127.384 18.7073 130.398 17.5547 134.336 16.7975L138.351 16.0407V15.3907C138.351 13.2632 137.499 11.8575 134.607 11.8575C132.417 11.9405 130.243 12.2429 128.119 12.7596V10.1997C131.399 8.54135 135.105 7.3516 138.235 7.3516C143.721 7.3516 145.729 10.1641 145.729 14.9608V22.0261C145.729 23.7916 146.155 24.2602 147.621 24.2602V24.2608ZM138.351 21.6287V17.482L136.343 17.9517C134.994 18.2764 133.987 18.8161 133.987 20.1147C133.987 21.5209 135.188 21.9895 136.343 21.9895C137.029 21.9742 137.707 21.8521 138.351 21.6281V21.6287ZM150.121 25.1974L150.004 20.0059L151.586 19.8249C152.974 22.6374 154.943 24.5139 157.609 24.5139C159.462 24.5139 160.507 23.5056 160.507 22.3143C160.507 21.0518 159.23 20.51 157.609 20.1147L155.872 19.6822C153.245 19.0326 150.314 17.3027 150.314 13.9844C150.314 10.0538 154.329 7.35107 159.81 7.35107C162.006 7.31035 164.179 7.78049 166.143 8.72125L166.53 13.338L164.677 13.4442C162.98 10.2703 161.199 9.29649 159.307 9.29649C157.648 9.29649 156.796 10.2703 156.796 11.4245C156.796 12.8307 157.919 13.4808 159.423 13.8417L161.547 14.3447C164.097 14.9598 167.188 16.184 167.188 19.6827C167.188 24.4417 161.586 26.4614 156.918 26.4614C154.59 26.4482 152.285 26.0194 150.121 25.1969V25.1974ZM173.101 20.2054C171.242 20.2054 169.196 19.3388 169.196 16.9238C169.196 14.5087 171.242 13.6066 173.101 13.6066C174.909 13.6066 177 14.5087 177 16.9238C177 19.3388 174.909 20.2049 173.101 20.2049V20.2054ZM3.6387 20.5843C1.78479 20.5843 0 19.7177 0 17.3027C0 14.8876 1.78479 13.9849 3.6387 13.9849C5.45113 13.9849 7.29398 14.8871 7.29398 17.3027C7.29398 19.7182 5.44836 20.5838 3.63593 20.5838L3.6387 20.5843Z"></path>
  </symbol>

  <symbol xmlns="http://www.w3.org/2000/svg" viewBox="0 0 89 36" id="resources-n1">
    <path d="M81.7309 28.6498V0.0703125H67.8594V7.04093L74.0632 6.97122L74.1329 28.5801H67.8594V35.5508H88.0045V28.6498H81.7309Z"></path>
    <path d="M53.8442 6.27344H46.9433V13.9411H39.9727V20.842H46.9433V28.5794H53.8442V20.842H60.8845V13.9411H53.8442V6.27344Z"></path>
    <path d="M22.4761 21.6089H21.0123L7.7681 0H0.867188V35.6896H7.7681V14.0109H9.16222L22.4761 35.6896H29.377V0H22.4761V21.6089Z"></path>
  </symbol>

    <symbol xmlns="http://www.w3.org/2000/svg" viewBox="0 0 160 32" id="resources-strelka">
    <path d="M18.1315 9.23116L18.5389 8.82327C18.5389 3.92853 14.6274 0.461426 9.5343 0.461426C4.44119 0.461426 0.611173 3.92853 0.611173 8.41537C0.611173 13.3101 3.66704 15.9614 7.5378 17.2259C8.55642 17.5522 9.81951 17.9193 10.7974 18.1641C12.7939 18.6535 15.0756 19.8364 15.0756 22.6917C15.0756 25.343 13.2421 27.1785 9.77877 27.1785C6.96737 27.1785 4.19672 25.1391 4.27821 21.468L3.87076 21.0601L0.203725 22.2838L0 22.6917C0.0814897 27.2601 4.23746 31.4614 9.77877 31.4614C16.0942 31.4614 19.3538 26.9746 19.3538 22.6917C19.3538 17.797 16.2979 15.2272 12.4272 14.1667L9.16759 13.2285C5.98949 12.2904 4.88938 10.8627 4.88938 8.41537C4.88938 6.21274 6.7229 4.54037 9.57504 4.54037C12.4272 4.54037 14.2607 6.57985 14.2607 8.82327L14.6682 9.23116H18.1315Z"></path>
    <path d="M23.8485 4.74432L24.2559 5.15222H30.8566V30.4417L31.264 30.8496H34.7681L35.1755 30.4417V5.15222H41.7762L42.1837 4.74432V1.48116L41.7762 1.07327H24.2559L23.8485 1.48116V4.74432Z"></path>
    <path d="M47.4932 30.4417L47.9007 30.8496H51.364L51.7714 30.4417V17.593H52.3826L61.7539 30.4417L62.1614 30.8496H66.6433V30.0338L57.2313 17.5522C61.7539 17.3891 66.0321 14.3706 66.0321 9.43511C66.0321 4.13248 61.7539 1.07327 56.8646 1.07327H47.9007L47.4932 1.48116V30.4417ZM51.7714 13.718V5.15222H57.0683C59.513 5.15222 61.7539 6.57985 61.7539 9.43511C61.7539 12.2904 59.513 13.718 57.0683 13.718H51.7714Z"></path>
    <path d="M70.7305 30.4417L71.138 30.8496H88.2508L88.6583 30.4417V27.1785L88.2508 26.7706H75.0087V17.797H87.8434L88.2508 17.3891V14.1259L87.8434 13.718H75.0087V5.15222H88.2508L88.6583 4.74432V1.48116L88.2508 1.07327H71.138L70.7305 1.48116V30.4417Z"></path>
    <path d="M93.9678 30.4417L94.3753 30.8496H111.488L111.896 30.4417V27.1785L111.488 26.7706H98.246V1.48116L97.8386 1.07327H94.3753L93.9678 1.48116V30.4417Z"></path>
    <path d="M131.058 1.07327L130.651 1.48116L121.483 13.3101V1.48116L121.117 1.07327H117.613L117.205 1.48116V30.4417L117.613 30.8496H121.076L121.483 30.4417V18.2048L131.058 30.4417L131.466 30.8496H136.152L136.355 30.4417L124.539 15.5535L135.948 1.48116L135.744 1.07327H131.058Z"></path>
    <path d="M138.405 30.4417L138.609 30.8496H142.48L142.887 30.4417L144.639 23.5075H153.766L155.518 30.4417L155.925 30.8496H159.796L160 30.4417L151.851 1.48116L151.444 1.07327H146.962L146.554 1.48116L138.405 30.4417ZM149.203 6.3759L152.666 19.4285H145.739L149.203 6.3759Z"></path>
  </symbol>

<symbol xmlns="http://www.w3.org/2000/svg" viewBox="0 0 187 38" id="resources-polka">
    <path fill-rule="evenodd" clip-rule="evenodd" d="M67.1282 6.68119C64.0143 3.61779 59.782 1.72325 55.1721 1.72325C50.5631 1.72325 46.3317 3.6187 43.2161 6.68119C40.0269 9.81771 38.0542 14.1592 38.0542 18.961C38.0542 23.7628 40.0278 28.1042 43.2197 31.2408C46.3335 34.3042 50.564 36.1987 55.1757 36.1987C59.7839 36.1987 64.0152 34.3032 67.1318 31.2408C70.3219 28.1033 72.2955 23.7619 72.2955 18.961C72.2955 14.1592 70.3219 9.81771 67.13 6.68119H67.1282ZM55.1721 1.17989C60.3976 1.17989 65.0701 3.20531 68.3991 6.47992C71.6537 9.67871 73.6672 14.0924 73.6672 18.961C73.6672 23.8296 71.6518 28.2432 68.3982 31.4438C65.0683 34.7166 60.3957 36.7421 55.1712 36.7421C49.9458 36.7421 45.2732 34.7166 41.9442 31.4438C38.6897 28.2432 36.677 23.8296 36.677 18.961C36.677 14.0924 38.6897 9.67871 41.9442 6.47992C45.275 3.20531 49.9467 1.17989 55.1721 1.17989ZM55.1721 17.5439C55.9646 17.5439 56.6065 18.1784 56.6065 18.961C56.6065 19.7435 55.9646 20.378 55.1721 20.378C54.3823 20.378 53.7405 19.7435 53.7405 18.961C53.7405 18.1784 54.3805 17.5439 55.1721 17.5439ZM159.045 26.2539H178.424L168.735 2.78831L159.044 26.2539H159.045ZM180.164 36.0254H182.457L178.647 26.7973H158.818L155.006 36.0254H157.986V36.5688H151.15V36.0254H154.355L158.166 26.7973H155.817V26.2539H158.391L169.044 0.461426L183.73 36.0254H187V36.5688H180.164V36.0254ZM120.759 14.7278H123.141C124.108 14.7278 125.22 14.7278 126.173 14.1772C126.685 13.8794 127.174 13.4353 127.621 12.9073C128.128 12.308 128.574 11.6003 128.937 10.8746C129.289 10.1769 129.555 9.47562 129.773 8.79326C129.99 8.1091 130.165 7.42583 130.323 6.78319L130.374 6.57379C130.67 5.36792 130.927 4.3173 131.494 3.50497C131.787 3.08526 132.161 2.73055 132.578 2.43991C133.056 2.10866 133.596 1.85864 134.141 1.69076C134.693 1.52197 135.241 1.43803 135.787 1.39561H135.789C136.308 1.3559 136.789 1.3559 137.27 1.3559V1.89926C136.85 1.89926 136.43 1.89926 136.048 1.92814C135.69 1.95522 135.331 2.01118 134.975 2.12039C134.567 2.24676 134.151 2.44172 133.766 2.70708C133.403 2.96251 133.072 3.27571 132.81 3.65029C132.275 4.41749 132.02 5.44645 131.733 6.62614L131.681 6.83554C131.524 7.47277 131.35 8.15333 131.125 8.86096C130.898 9.5704 130.628 10.2889 130.281 10.9821C129.909 11.724 129.446 12.4533 128.915 13.0824C128.428 13.6573 127.884 14.1474 127.299 14.485C127.14 14.5753 126.978 14.6565 126.816 14.7287H128.193C129.834 14.7287 131.72 14.7287 133.395 15.9833C134.121 16.5294 134.798 17.3246 135.407 18.2615C136.079 19.2949 136.667 20.4963 137.137 21.7157C137.582 22.8674 137.927 24.0534 138.212 25.2205C138.502 26.4029 138.723 27.5239 138.923 28.5736L138.988 28.922C139.36 30.8915 139.684 32.6073 140.377 33.8989C140.699 34.4964 141.103 35.0064 141.524 35.4288C142.044 35.9487 142.587 36.3278 143.035 36.5688C143.385 36.7583 143.65 36.8468 143.87 36.8874C144.045 36.9181 144.25 36.9181 144.453 36.9181V37.4614C144.102 37.4614 143.75 37.4614 143.296 37.3784C142.884 37.3035 142.439 37.1618 141.929 36.8883C141.421 36.6157 140.813 36.1933 140.248 35.6283C139.803 35.1833 139.376 34.6444 139.037 34.0108C138.322 32.684 137.995 30.951 137.621 28.9626L137.554 28.6142C137.35 27.5401 137.127 26.3992 136.85 25.271C136.571 24.1292 136.229 22.9577 135.781 21.7978C135.314 20.5829 134.737 19.3987 134.084 18.395C133.503 17.5015 132.861 16.7469 132.185 16.2379C130.896 15.2721 129.452 15.2721 128.195 15.2721H124.279V15.254C123.889 15.2721 123.508 15.2721 123.141 15.2721H120.759V36.0281H123.491V36.5715H116.654V36.0281H119.386V1.89835H116.654V1.35319H123.49V1.89655H120.759V14.7278ZM104.166 36.0254H106.462L92.7361 2.78831L79.0098 36.0254H81.992V36.5688H75.1561V36.0254H78.3607L93.0502 0.461426L107.736 36.0254H111.006V36.5688H104.17V36.0254H104.166ZM29.6977 1.89655V36.0254H32.4302V36.5688H25.5943V36.0254H28.3223V1.89655H4.10518V36.2971H2.73255V1.89655H0V1.35319H32.4293V1.89655H29.6977Z"></path>
</symbol>

  <symbol xmlns="http://www.w3.org/2000/svg" viewBox="0 0 16 16" id="facebook_color_white">
    <path fill-rule="evenodd" clip-rule="evenodd" d="M8 0C3.58172 0 0 3.35786 0 7.5C0 11.6421 3.58172 15 8 15C12.4183 15 16 11.6421 16 7.5C16 3.35786 12.4183 0 8 0ZM8.83551 7.82944V11.9098H7.03468V7.8296H6.13499V6.42347H7.03468V5.57924C7.03468 4.43212 7.54271 3.75 8.98606 3.75H10.1877V5.15629H9.43658C8.87472 5.15629 8.83755 5.35279 8.83755 5.71953L8.83551 6.42331H10.1962L10.037 7.82944H8.83551Z"></path>
  </symbol>

    <symbol xmlns="http://www.w3.org/2000/svg" viewBox="0 0 16 16" id="vk_color_white">
    <path fill-rule="evenodd" clip-rule="evenodd" d="M8 0C3.58172 0 0 3.35786 0 7.5C0 11.6421 3.58172 15 8 15C12.4183 15 16 11.6421 16 7.5C16 3.35786 12.4183 0 8 0ZM8.65219 9.86733C8.57331 9.9453 8.4193 9.96104 8.4193 9.96104H7.90928C7.90928 9.96104 6.78407 10.0233 5.79282 9.07382C4.71185 8.03796 3.75733 5.98275 3.75733 5.98275C3.75733 5.98275 3.70224 5.84794 3.76192 5.78303C3.82912 5.70967 4.01234 5.70506 4.01234 5.70506L5.23147 5.69776C5.23147 5.69776 5.34624 5.71505 5.42846 5.77074C5.49649 5.81683 5.53447 5.90248 5.53447 5.90248C5.53447 5.90248 5.73147 6.36107 5.99232 6.77588C6.50193 7.5859 6.73899 7.76296 6.91178 7.67616C7.16387 7.54979 7.08833 6.53122 7.08833 6.53122C7.08833 6.53122 7.09292 6.16173 6.96145 5.99696C6.85961 5.86945 6.66762 5.83219 6.5829 5.82182C6.51403 5.81337 6.62672 5.66665 6.7728 5.60098C6.99233 5.50227 7.37965 5.49651 7.8375 5.50073C8.19435 5.50419 8.29702 5.52455 8.43642 5.55566C8.75995 5.6275 8.74985 5.85775 8.72805 6.35467C8.72153 6.50329 8.71397 6.67575 8.71397 6.87497C8.71397 6.91973 8.71255 6.96745 8.71109 7.01655C8.70352 7.27113 8.69486 7.56265 8.87716 7.67116C8.97064 7.72647 9.19894 7.67923 9.77032 6.78663C10.0412 6.36337 10.244 5.86599 10.244 5.86599C10.244 5.86599 10.2887 5.77727 10.3576 5.73925C10.4281 5.70045 10.5232 5.71236 10.5232 5.71236L11.8062 5.70506C11.8062 5.70506 12.1919 5.66243 12.2541 5.82297C12.3196 5.99082 12.1101 6.38335 11.5859 7.02629C11.0903 7.63432 10.8482 7.85946 10.8686 8.05762C10.8836 8.20357 11.041 8.33487 11.3442 8.59372C11.9743 9.1321 12.1432 9.41536 12.1838 9.48341C12.1872 9.48905 12.1897 9.49322 12.1915 9.49592C12.474 9.92725 11.878 9.96104 11.878 9.96104L10.7382 9.97564C10.7382 9.97564 10.4936 10.0202 10.1714 9.81663C10.0026 9.71009 9.83769 9.53608 9.6806 9.37033C9.4407 9.11722 9.21907 8.88338 9.02991 8.93862C8.7123 9.03157 8.7219 9.66108 8.7219 9.66108C8.7219 9.66108 8.7244 9.79589 8.65219 9.86733Z"></path>
  </symbol>

  <symbol xmlns="http://www.w3.org/2000/svg" viewBox="0 0 16 14" id="instagram_color_white">
    <path fill-rule="evenodd" clip-rule="evenodd" d="M8 0C3.58172 0 0 3.13401 0 7C0 10.866 3.58172 14 8 14C12.4183 14 16 10.866 16 7C16 3.13401 12.4183 0 8 0ZM6.24191 3.28901C6.69703 3.27089 6.84245 3.26646 8.00122 3.26646H7.99988C9.15901 3.26646 9.3039 3.27089 9.75901 3.28901C10.2132 3.30721 10.5235 3.37014 10.7955 3.46246C11.0764 3.55774 11.3137 3.68529 11.551 3.89296C11.7884 4.10048 11.9341 4.30877 12.0435 4.55431C12.1484 4.79169 12.2204 5.06299 12.2417 5.46043C12.2621 5.85866 12.2675 5.98591 12.2675 6.99983C12.2675 8.01375 12.2621 8.14069 12.2417 8.53891C12.2204 8.9362 12.1484 9.20757 12.0435 9.44503C11.9341 9.6905 11.7884 9.89879 11.551 10.1063C11.314 10.314 11.0763 10.4418 10.7957 10.5372C10.5243 10.6295 10.2139 10.6924 9.75963 10.7106C9.30452 10.7288 9.15954 10.7332 8.00068 10.7332C6.84201 10.7332 6.69667 10.7288 6.24156 10.7106C5.78742 10.6924 5.47728 10.6295 5.20581 10.5372C4.92536 10.4418 4.68732 10.314 4.45025 10.1063C4.213 9.89879 4.06722 9.6905 3.95815 9.44495C3.85273 9.20757 3.78082 8.93628 3.75993 8.53883C3.73931 8.14061 3.73415 8.01375 3.73415 6.99983C3.73415 5.98591 3.73949 5.85858 3.75984 5.46036C3.78029 5.06306 3.85229 4.79169 3.95807 4.55424C4.0674 4.30877 4.21318 4.10048 4.45051 3.89296C4.68767 3.68537 4.92572 3.55782 5.20634 3.46246C5.47764 3.37014 5.78768 3.30721 6.24191 3.28901Z" ></path>
    <path fill-rule="evenodd" clip-rule="evenodd" d="M7.61506 3.93941L7.85561 3.93937L7.99781 3.93941C9.13703 3.93941 9.27205 3.94299 9.72192 3.96088C10.1379 3.97752 10.3637 4.03834 10.5141 4.08944C10.7132 4.15711 10.8552 4.238 11.0044 4.36867C11.1538 4.49934 11.2462 4.62378 11.3237 4.79801C11.3821 4.92945 11.4517 5.12701 11.4707 5.49102C11.4911 5.88458 11.4955 6.0028 11.4955 6.99914C11.4955 7.99549 11.4911 8.11371 11.4707 8.50727C11.4516 8.87127 11.3821 9.06883 11.3237 9.20028C11.2464 9.3745 11.1538 9.49856 11.0044 9.62915C10.8551 9.75982 10.7133 9.84071 10.5141 9.90837C10.3639 9.95971 10.1379 10.0204 9.72192 10.037C9.27214 10.0549 9.13703 10.0588 7.99781 10.0588C6.85851 10.0588 6.72349 10.0549 6.27371 10.037C5.8577 10.0202 5.63192 9.9594 5.48143 9.9083C5.28232 9.84063 5.1401 9.75974 4.99076 9.62907C4.84143 9.4984 4.74898 9.37427 4.67147 9.19997C4.61307 9.06852 4.54347 8.87096 4.52453 8.50696C4.50409 8.1134 4.5 7.99517 4.5 6.99821C4.5 6.00124 4.50409 5.88364 4.52453 5.49008C4.54356 5.12608 4.61307 4.92852 4.67147 4.79692C4.7488 4.62269 4.84143 4.49825 4.99076 4.36758C5.1401 4.23691 5.28232 4.15602 5.48143 4.0882C5.63183 4.03687 5.8577 3.9762 6.27371 3.95948C6.66731 3.94392 6.81985 3.93925 7.61506 3.93848V3.93941ZM10.2754 4.55946C9.99268 4.55946 9.76335 4.7599 9.76335 5.00731C9.76335 5.25465 9.99268 5.45532 10.2754 5.45532C10.558 5.45532 10.7874 5.25465 10.7874 5.00731C10.7874 4.75997 10.558 4.5593 10.2754 4.5593V4.55946ZM5.80676 6.99981C5.80676 5.94104 6.78779 5.08261 7.9978 5.08257C9.20786 5.08257 10.1887 5.94101 10.1887 6.99981C10.1887 8.05861 9.20795 8.91667 7.99789 8.91667C6.78783 8.91667 5.80676 8.05861 5.80676 6.99981Z" ></path>
    <path d="M8.00036 5.75537C8.78579 5.75537 9.4226 6.3125 9.4226 6.99983C9.4226 7.68708 8.78579 8.24429 8.00036 8.24429C7.21484 8.24429 6.57812 7.68708 6.57812 6.99983C6.57812 6.3125 7.21484 5.75537 8.00036 5.75537Z" ></path>
  </symbol>
</svg>
